<?xml version="1.0" standalone="no"?>
<!DOCTYPE svg PUBLIC "-//W3C//DTD SVG 20010904//EN"
 "http://www.w3.org/TR/2001/REC-SVG-20010904/DTD/svg10.dtd">
<svg version="1.0" xmlns="http://www.w3.org/2000/svg"
 width="89.000000pt" height="89.000000pt" viewBox="0 0 89.000000 89.000000"
 preserveAspectRatio="xMidYMid meet">
<metadata>
Created by potrace 1.11, written by Peter Selinger 2001-2013
</metadata>
<g transform="translate(0.000000,89.000000) scale(0.100000,-0.100000)"
fill="#000000" stroke="none">
<path d="M250 853 c0 -5 34 -95 74 -202 l73 -194 123 149 c68 82 130 157 138
167 19 22 16 25 -33 31 -22 2 -108 16 -191 30 -163 28 -184 30 -184 19z m208
-89 c100 -14 98 -10 31 -91 -33 -40 -64 -73 -68 -73 -3 0 -19 35 -35 78 -16
42 -31 83 -34 91 -4 11 2 12 29 7 19 -3 53 -9 77 -12z"/>
<path d="M563 512 l-153 -126 22 -23 c12 -13 25 -22 28 -21 4 2 29 22 56 45
27 22 93 78 147 123 l98 82 -22 24 c-12 13 -23 24 -23 24 -1 -1 -70 -58 -153
-128z"/>
<path d="M148 560 c-86 -24 -138 -93 -138 -185 0 -137 123 -227 251 -183 162
56 178 275 26 354 -33 18 -101 24 -139 14z m120 -80 c18 -11 40 -37 48 -57 55
-130 -120 -240 -210 -132 -35 41 -42 75 -25 123 27 77 117 109 187 66z"/>
<path d="M583 417 c-21 -11 -21 -11 17 -87 l38 -76 -71 -34 c-40 -18 -73 -35
-75 -36 -2 -1 4 -16 12 -32 l16 -31 73 39 74 38 39 -74 c21 -41 41 -74 44 -74
3 0 15 8 28 18 l23 18 -35 66 c-20 36 -36 68 -36 72 0 3 32 22 70 41 39 19 70
38 70 41 0 5 -19 45 -25 52 -2 2 -35 -13 -74 -32 -39 -20 -72 -36 -74 -36 -2
0 -18 32 -37 70 -35 72 -39 75 -77 57z"/>
</g>
</svg>
